# xmcd CD database file
#
# Track frame offsets:
#	150
#	40212
#	55524
#	80588
#
# Disc length: 1338 seconds
#
# Revision: 1
# Processed by: cddbd v1.5.2PL0 Copyright (c) Steve Scherf et al.
# Submitted via: CDex 1.51
#
DISCID=27053804
DTITLE=Mint - Chasing Shadows EP
DYEAR=2007
DGENRE=New Age
TTITLE0=Chasing Shadows
TTITLE1=Heart Shaped
TTITLE2=A Figure On Horseback
TTITLE3=Vighurs
EXTD=YEAR: 2007
EXTT0=
EXTT1=
EXTT2=
EXTT3=
PLAYORDER=
